<mxfile host="Electron" agent="Mozilla/5.0 (Windows NT 10.0; Win64; x64) AppleWebKit/537.36 (KHTML, like Gecko) draw.io/26.0.4 Chrome/128.0.6613.186 Electron/32.2.5 Safari/537.36" version="26.0.4">
  <diagram name="페이지-1" id="9StYxNi68ulMTL_3lwDl">
    <mxGraphModel dx="2607" dy="1535" grid="1" gridSize="10" guides="1" tooltips="1" connect="1" arrows="1" fold="1" page="1" pageScale="1" pageWidth="827" pageHeight="1169" math="0" shadow="0">
      <root>
        <mxCell id="0" />
        <mxCell id="1" parent="0" />
        <mxCell id="tHdHhiSPVZouzMtTKs7G-31" value="" style="rounded=0;whiteSpace=wrap;html=1;" parent="1" vertex="1">
          <mxGeometry x="1230" y="315" width="370" height="130" as="geometry" />
        </mxCell>
        <mxCell id="tHdHhiSPVZouzMtTKs7G-29" value="" style="rounded=0;whiteSpace=wrap;html=1;" parent="1" vertex="1">
          <mxGeometry x="829.5" y="315" width="305" height="125" as="geometry" />
        </mxCell>
        <mxCell id="tHdHhiSPVZouzMtTKs7G-22" value="" style="rounded=0;whiteSpace=wrap;html=1;" parent="1" vertex="1">
          <mxGeometry x="470" y="315" width="300" height="95" as="geometry" />
        </mxCell>
        <mxCell id="tHdHhiSPVZouzMtTKs7G-21" value="" style="rounded=0;whiteSpace=wrap;html=1;" parent="1" vertex="1">
          <mxGeometry x="105" y="315" width="280" height="150" as="geometry" />
        </mxCell>
        <mxCell id="tHdHhiSPVZouzMtTKs7G-2" value="&lt;font style=&quot;vertical-align: inherit;&quot;&gt;&lt;font style=&quot;vertical-align: inherit;&quot;&gt;애완용품 구매&lt;/font&gt;&lt;/font&gt;" style="text;strokeColor=none;align=center;fillColor=none;html=1;verticalAlign=middle;whiteSpace=wrap;rounded=0;" parent="1" vertex="1">
          <mxGeometry x="190" y="240" width="120" height="20" as="geometry" />
        </mxCell>
        <mxCell id="tHdHhiSPVZouzMtTKs7G-3" value="&lt;font style=&quot;vertical-align: inherit;&quot;&gt;&lt;font style=&quot;vertical-align: inherit;&quot;&gt;회원&lt;/font&gt;&lt;/font&gt;" style="text;strokeColor=none;align=center;fillColor=none;html=1;verticalAlign=middle;whiteSpace=wrap;rounded=0;" parent="1" vertex="1">
          <mxGeometry x="220" y="310" width="60" height="30" as="geometry" />
        </mxCell>
        <mxCell id="tHdHhiSPVZouzMtTKs7G-4" value="&lt;font style=&quot;vertical-align: inherit;&quot;&gt;&lt;font style=&quot;vertical-align: inherit;&quot;&gt;비회원&lt;/font&gt;&lt;/font&gt;" style="text;strokeColor=none;align=center;fillColor=none;html=1;verticalAlign=middle;whiteSpace=wrap;rounded=0;" parent="1" vertex="1">
          <mxGeometry x="580" y="315" width="60" height="30" as="geometry" />
        </mxCell>
        <mxCell id="tHdHhiSPVZouzMtTKs7G-5" value="&lt;font style=&quot;vertical-align: inherit;&quot;&gt;&lt;font style=&quot;vertical-align: inherit;&quot;&gt;판매자&lt;/font&gt;&lt;/font&gt;" style="text;strokeColor=none;align=center;fillColor=none;html=1;verticalAlign=middle;whiteSpace=wrap;rounded=0;" parent="1" vertex="1">
          <mxGeometry x="944.5" y="325" width="60" height="30" as="geometry" />
        </mxCell>
        <mxCell id="tHdHhiSPVZouzMtTKs7G-6" value="&lt;font style=&quot;vertical-align: inherit;&quot;&gt;&lt;font style=&quot;vertical-align: inherit;&quot;&gt;ㄱ관리자&lt;/font&gt;&lt;/font&gt;" style="text;strokeColor=none;align=center;fillColor=none;html=1;verticalAlign=middle;whiteSpace=wrap;rounded=0;" parent="1" vertex="1">
          <mxGeometry x="1380" y="325" width="60" height="30" as="geometry" />
        </mxCell>
        <mxCell id="tHdHhiSPVZouzMtTKs7G-7" value="&lt;font style=&quot;vertical-align: inherit;&quot;&gt;&lt;font style=&quot;vertical-align: inherit;&quot;&gt;&lt;font style=&quot;vertical-align: inherit;&quot;&gt;&lt;font style=&quot;vertical-align: inherit;&quot;&gt;&lt;font style=&quot;vertical-align: inherit;&quot;&gt;&lt;font style=&quot;vertical-align: inherit;&quot;&gt;[R]회원은 애완용품 키워드 조회를 할 수 있다.&lt;/font&gt;&lt;/font&gt;&lt;/font&gt;&lt;/font&gt;&lt;/font&gt;&lt;/font&gt;" style="text;strokeColor=none;align=center;fillColor=none;html=1;verticalAlign=middle;whiteSpace=wrap;rounded=0;" parent="1" vertex="1">
          <mxGeometry x="125" y="360" width="250" height="20" as="geometry" />
        </mxCell>
        <mxCell id="tHdHhiSPVZouzMtTKs7G-8" value="&lt;font style=&quot;vertical-align: inherit;&quot;&gt;&lt;font style=&quot;vertical-align: inherit;&quot;&gt;&lt;font style=&quot;vertical-align: inherit;&quot;&gt;&lt;font style=&quot;vertical-align: inherit;&quot;&gt;[R]회원은 애완용품 전체조회를 할 수 있다.&lt;/font&gt;&lt;/font&gt;&lt;/font&gt;&lt;/font&gt;" style="text;strokeColor=none;align=center;fillColor=none;html=1;verticalAlign=middle;whiteSpace=wrap;rounded=0;" parent="1" vertex="1">
          <mxGeometry x="125" y="340" width="240" height="20" as="geometry" />
        </mxCell>
        <mxCell id="tHdHhiSPVZouzMtTKs7G-9" value="C : Create : 생성&lt;div&gt;R : Read : 조회&lt;/div&gt;&lt;div&gt;U : : 수정&lt;/div&gt;&lt;div&gt;D : : 삭제&lt;/div&gt;&lt;div&gt;&lt;span style=&quot;color: rgba(0, 0, 0, 0); font-family: monospace; font-size: 0px; text-align: start; text-wrap-mode: nowrap;&quot;&gt;%3CmxGraphModel%3E%3Croot%3E%3CmxCell%20id%3D%220%22%2F%3E%3CmxCell%20id%3D%221%22%20parent%3D%220%22%2F%3E%3CmxCell%20id%3D%222%22%20value%3D%22%26lt%3Bfont%20style%3D%26quot%3Bvertical-align%3A%20inherit%3B%26quot%3B%26gt%3B%26lt%3Bfont%20style%3D%26quot%3Bvertical-align%3A%20inherit%3B%26quot%3B%26gt%3B%26lt%3Bfont%20style%3D%26quot%3Bvertical-align%3A%20inherit%3B%26quot%3B%26gt%3B%26lt%3Bfont%20style%3D%26quot%3Bvertical-align%3A%20inherit%3B%26quot%3B%26gt%3B%ED%9A%8C%EC%9B%90%EC%9D%80%20%EC%95%A0%EC%99%84%EC%9A%A9%ED%92%88%20%EC%A0%84%EC%B2%B4%EC%A1%B0%ED%9A%8C%EB%A5%BC%20%ED%95%A0%20%EC%88%98%20%EC%9E%88%EB%8B%A4.%26lt%3B%2Ffont%26gt%3B%26lt%3B%2Ffont%26gt%3B%26lt%3B%2Ffont%26gt%3B%26lt%3B%2Ffont%26gt%3B%22%20style%3D%22text%3BstrokeColor%3Dnone%3Balign%3Dcenter%3BfillColor%3Dnone%3Bhtml%3D1%3BverticalAlign%3Dmiddle%3BwhiteSpace%3Dwrap%3Brounded%3D0%3B%22%20vertex%3D%221%22%20parent%3D%221%22%3E%3CmxGeometry%20x%3D%22450%22%20y%3D%22480%22%20width%3D%22220%22%20height%3D%2220%22%20as%3D%22geometry%22%2F%3E%3C%2FmxCell%3E%3C%2Froot%3E%3C%2FmxGraphModel%3E&lt;/span&gt;&lt;/div&gt;" style="text;strokeColor=none;align=center;fillColor=none;html=1;verticalAlign=middle;whiteSpace=wrap;rounded=0;" parent="1" vertex="1">
          <mxGeometry x="980" y="90" width="124" height="80" as="geometry" />
        </mxCell>
        <mxCell id="tHdHhiSPVZouzMtTKs7G-10" value="&lt;font style=&quot;vertical-align: inherit;&quot;&gt;&lt;font style=&quot;vertical-align: inherit;&quot;&gt;&lt;font style=&quot;vertical-align: inherit;&quot;&gt;&lt;font style=&quot;vertical-align: inherit;&quot;&gt;[R]&lt;span style=&quot;color: rgba(0, 0, 0, 0); font-family: monospace; font-size: 0px; text-align: start; text-wrap-mode: nowrap;&quot;&gt;%3CmxGraphModel%3E%3Croot%3E%3CmxCell%20id%3D%220%22%2F%3E%3CmxCell%20id%3D%221%22%20parent%3D%220%22%2F%3E%3CmxCell%20id%3D%222%22%20value%3D%22%26lt%3Bfont%20style%3D%26quot%3Bvertical-align%3A%20inherit%3B%26quot%3B%26gt%3B%26lt%3Bfont%20style%3D%26quot%3Bvertical-align%3A%20inherit%3B%26quot%3B%26gt%3B%26lt%3Bfont%20style%3D%26quot%3Bvertical-align%3A%20inherit%3B%26quot%3B%26gt%3B%26lt%3Bfont%20style%3D%26quot%3Bvertical-align%3A%20inherit%3B%26quot%3B%26gt%3B%ED%9A%8C%EC%9B%90%EC%9D%80%20%EC%95%A0%EC%99%84%EC%9A%A9%ED%92%88%20%EC%A0%84%EC%B2%B4%EC%A1%B0%ED%9A%8C%EB%A5%BC%20%ED%95%A0%20%EC%88%98%20%EC%9E%88%EB%8B%A4.%26lt%3B%2Ffont%26gt%3B%26lt%3B%2Ffont%26gt%3B%26lt%3B%2Ffont%26gt%3B%26lt%3B%2Ffont%26gt%3B%22%20style%3D%22text%3BstrokeColor%3Dnone%3Balign%3Dcenter%3BfillColor%3Dnone%3Bhtml%3D1%3BverticalAlign%3Dmiddle%3BwhiteSpace%3Dwrap%3Brounded%3D0%3B%22%20vertex%3D%221%22%20parent%3D%221%22%3E%3CmxGeometry%20x%3D%22450%22%20y%3D%22480%22%20width%3D%22220%22%20height%3D%2220%22%20as%3D%22geometry%22%2F%3E%3C%2FmxCell%3E%3C%2Froot%3E%3C%2FmxGraphModel%3E&lt;/span&gt;비회원은 애완용품 전체조회를 할 수 있다.&lt;/font&gt;&lt;/font&gt;&lt;/font&gt;&lt;/font&gt;" style="text;strokeColor=none;align=center;fillColor=none;html=1;verticalAlign=middle;whiteSpace=wrap;rounded=0;" parent="1" vertex="1">
          <mxGeometry x="480" y="345" width="300" height="20" as="geometry" />
        </mxCell>
        <mxCell id="tHdHhiSPVZouzMtTKs7G-11" value="&lt;font style=&quot;vertical-align: inherit;&quot;&gt;&lt;font style=&quot;vertical-align: inherit;&quot;&gt;&lt;font style=&quot;vertical-align: inherit;&quot;&gt;&lt;font style=&quot;vertical-align: inherit;&quot;&gt;[R]비회원은 애완용품 키워드조회를 할 수 있다.&lt;/font&gt;&lt;/font&gt;&lt;/font&gt;&lt;/font&gt;" style="text;strokeColor=none;align=center;fillColor=none;html=1;verticalAlign=middle;whiteSpace=wrap;rounded=0;" parent="1" vertex="1">
          <mxGeometry x="500" y="375" width="260" height="20" as="geometry" />
        </mxCell>
        <mxCell id="tHdHhiSPVZouzMtTKs7G-12" value="&lt;font style=&quot;vertical-align: inherit;&quot;&gt;&lt;font style=&quot;vertical-align: inherit;&quot;&gt;&lt;font style=&quot;vertical-align: inherit;&quot;&gt;&lt;font style=&quot;vertical-align: inherit;&quot;&gt;[C]회원은 애완용품 구매를 할 수 있다.&lt;/font&gt;&lt;/font&gt;&lt;/font&gt;&lt;/font&gt;" style="text;strokeColor=none;align=center;fillColor=none;html=1;verticalAlign=middle;whiteSpace=wrap;rounded=0;" parent="1" vertex="1">
          <mxGeometry x="120" y="380" width="220" height="20" as="geometry" />
        </mxCell>
        <mxCell id="tHdHhiSPVZouzMtTKs7G-14" value="&lt;font style=&quot;vertical-align: inherit;&quot;&gt;&lt;font style=&quot;vertical-align: inherit;&quot;&gt;&lt;font style=&quot;vertical-align: inherit;&quot;&gt;&lt;font style=&quot;vertical-align: inherit;&quot;&gt;[U]회원은 애완용품 구매 정보 수정 할 수 있다.&lt;/font&gt;&lt;/font&gt;&lt;/font&gt;&lt;/font&gt;" style="text;strokeColor=none;align=center;fillColor=none;html=1;verticalAlign=middle;whiteSpace=wrap;rounded=0;" parent="1" vertex="1">
          <mxGeometry x="110" y="400" width="280" height="20" as="geometry" />
        </mxCell>
        <mxCell id="tHdHhiSPVZouzMtTKs7G-16" value="&lt;font style=&quot;vertical-align: inherit;&quot;&gt;&lt;font style=&quot;vertical-align: inherit;&quot;&gt;&lt;font style=&quot;vertical-align: inherit;&quot;&gt;&lt;font style=&quot;vertical-align: inherit;&quot;&gt;[D]회원은 애완&lt;span style=&quot;color: rgba(0, 0, 0, 0); font-family: monospace; font-size: 0px; text-align: start; text-wrap-mode: nowrap;&quot;&gt;%3CmxGraphModel%3E%3Croot%3E%3CmxCell%20id%3D%220%22%2F%3E%3CmxCell%20id%3D%221%22%20parent%3D%220%22%2F%3E%3CmxCell%20id%3D%222%22%20value%3D%22%26lt%3Bfont%20style%3D%26quot%3Bvertical-align%3A%20inherit%3B%26quot%3B%26gt%3B%26lt%3Bfont%20style%3D%26quot%3Bvertical-align%3A%20inherit%3B%26quot%3B%26gt%3B%26lt%3Bfont%20style%3D%26quot%3Bvertical-align%3A%20inherit%3B%26quot%3B%26gt%3B%26lt%3Bfont%20style%3D%26quot%3Bvertical-align%3A%20inherit%3B%26quot%3B%26gt%3B%5BU%5D%ED%9A%8C%EC%9B%90%EC%9D%80%20%EC%95%A0%EC%99%84%EC%9A%A9%ED%92%88%20%EA%B5%AC%EB%A7%A4%20%EC%A0%95%EB%B3%B4%20%EC%88%98%EC%A0%95%20%ED%95%A0%20%EC%88%98%20%EC%9E%88%EB%8B%A4.%26lt%3B%2Ffont%26gt%3B%26lt%3B%2Ffont%26gt%3B%26lt%3B%2Ffont%26gt%3B%26lt%3B%2Ffont%26gt%3B%22%20style%3D%22text%3BstrokeColor%3Dnone%3Balign%3Dcenter%3BfillColor%3Dnone%3Bhtml%3D1%3BverticalAlign%3Dmiddle%3BwhiteSpace%3Dwrap%3Brounded%3D0%3B%22%20vertex%3D%221%22%20parent%3D%221%22%3E%3CmxGeometry%20x%3D%2295%22%20y%3D%22440%22%20width%3D%22280%22%20height%3D%2220%22%20as%3D%22geometry%22%2F%3E%3C%2FmxCell%3E%3C%2Froot%3E%3C%2FmxGraphModel%3E&lt;/span&gt;용품 구매 취소할 수 있다.&lt;/font&gt;&lt;/font&gt;&lt;/font&gt;&lt;/font&gt;" style="text;strokeColor=none;align=center;fillColor=none;html=1;verticalAlign=middle;whiteSpace=wrap;rounded=0;" parent="1" vertex="1">
          <mxGeometry x="95" y="420" width="280" height="20" as="geometry" />
        </mxCell>
        <mxCell id="tHdHhiSPVZouzMtTKs7G-20" value="인증서비스" style="text;strokeColor=none;align=center;fillColor=none;html=1;verticalAlign=middle;whiteSpace=wrap;rounded=0;" parent="1" vertex="1">
          <mxGeometry x="160" y="510" width="190" height="20" as="geometry" />
        </mxCell>
        <mxCell id="tHdHhiSPVZouzMtTKs7G-23" style="edgeStyle=orthogonalEdgeStyle;rounded=0;orthogonalLoop=1;jettySize=auto;html=1;exitX=0.5;exitY=1;exitDx=0;exitDy=0;" parent="1" source="tHdHhiSPVZouzMtTKs7G-22" target="tHdHhiSPVZouzMtTKs7G-22" edge="1">
          <mxGeometry relative="1" as="geometry" />
        </mxCell>
        <mxCell id="tHdHhiSPVZouzMtTKs7G-25" value="[C]판매자는 애완용품을 등록할 수 있다." style="text;strokeColor=none;align=center;fillColor=none;html=1;verticalAlign=middle;whiteSpace=wrap;rounded=0;" parent="1" vertex="1">
          <mxGeometry x="829.5" y="350" width="250" height="20" as="geometry" />
        </mxCell>
        <mxCell id="tHdHhiSPVZouzMtTKs7G-27" value="[U]판매자는 등록된 애완용품 정보를 수정할 수 있다.&lt;div&gt;[R]판매자는 등록한 애완용품 정보를 조회할 수 있다.&lt;/div&gt;&lt;div&gt;[D]판매자는 등록된 애완용품 정보를 삭제할 수 있다.&lt;/div&gt;" style="text;strokeColor=none;align=center;fillColor=none;html=1;verticalAlign=middle;whiteSpace=wrap;rounded=0;" parent="1" vertex="1">
          <mxGeometry x="827" y="370" width="295" height="70" as="geometry" />
        </mxCell>
        <mxCell id="tHdHhiSPVZouzMtTKs7G-30" value="[R]관리자는 등록된 상품 목록을 조회(전체,키워드)할 수 있다.&lt;div&gt;[U]관리자는 등록한 상품을 수정할 수 있다.&lt;/div&gt;&lt;div&gt;[D]관리자는 판매자가 등록한 상품을 삭제할 수 있다.&lt;/div&gt;&lt;div&gt;[C]관리자가 판매자를 대신해 상품을 등록할 수 있다.&lt;/div&gt;" style="text;strokeColor=none;align=center;fillColor=none;html=1;verticalAlign=middle;whiteSpace=wrap;rounded=0;" parent="1" vertex="1">
          <mxGeometry x="1240" y="315" width="340" height="140" as="geometry" />
        </mxCell>
        <mxCell id="tHdHhiSPVZouzMtTKs7G-32" value="애완용품 구매 서비스" style="text;strokeColor=none;align=center;fillColor=none;html=1;verticalAlign=middle;whiteSpace=wrap;rounded=0;" parent="1" vertex="1">
          <mxGeometry x="185" y="290" width="120" height="10" as="geometry" />
        </mxCell>
        <mxCell id="tHdHhiSPVZouzMtTKs7G-33" value="애완용품 구매 서비스" style="text;strokeColor=none;align=center;fillColor=none;html=1;verticalAlign=middle;whiteSpace=wrap;rounded=0;" parent="1" vertex="1">
          <mxGeometry x="550" y="290" width="120" height="10" as="geometry" />
        </mxCell>
        <mxCell id="tHdHhiSPVZouzMtTKs7G-34" value="" style="endArrow=none;html=1;rounded=0;" parent="1" edge="1">
          <mxGeometry width="50" height="50" relative="1" as="geometry">
            <mxPoint y="1000" as="sourcePoint" />
            <mxPoint x="1552" y="1000" as="targetPoint" />
          </mxGeometry>
        </mxCell>
        <mxCell id="tHdHhiSPVZouzMtTKs7G-36" value="애완용품 구매 서비스" style="swimlane;fontStyle=0;childLayout=stackLayout;horizontal=1;startSize=30;horizontalStack=0;resizeParent=1;resizeParentMax=0;resizeLast=0;collapsible=1;marginBottom=0;whiteSpace=wrap;html=1;" parent="1" vertex="1">
          <mxGeometry x="10" y="1049" width="510" height="380" as="geometry" />
        </mxCell>
        <mxCell id="tHdHhiSPVZouzMtTKs7G-41" value="&lt;font style=&quot;vertical-align: inherit;&quot;&gt;&lt;font style=&quot;vertical-align: inherit;&quot;&gt;&lt;font style=&quot;vertical-align: inherit;&quot;&gt;&lt;font style=&quot;vertical-align: inherit;&quot;&gt;[R] 애완용품 전체조회를 할 수 있다.&lt;/font&gt;&lt;/font&gt;&lt;/font&gt;&lt;/font&gt;" style="text;strokeColor=none;align=center;fillColor=none;html=1;verticalAlign=middle;whiteSpace=wrap;rounded=0;" parent="tHdHhiSPVZouzMtTKs7G-36" vertex="1">
          <mxGeometry y="30" width="510" height="20" as="geometry" />
        </mxCell>
        <mxCell id="tHdHhiSPVZouzMtTKs7G-40" value="&lt;font style=&quot;vertical-align: inherit;&quot;&gt;&lt;font style=&quot;vertical-align: inherit;&quot;&gt;&lt;font style=&quot;vertical-align: inherit;&quot;&gt;&lt;font style=&quot;vertical-align: inherit;&quot;&gt;&lt;font style=&quot;vertical-align: inherit;&quot;&gt;&lt;font style=&quot;vertical-align: inherit;&quot;&gt;[R] 애완용품 키워드 조회를 할 수 있다.&lt;/font&gt;&lt;/font&gt;&lt;/font&gt;&lt;/font&gt;&lt;/font&gt;&lt;/font&gt;" style="text;strokeColor=none;align=center;fillColor=none;html=1;verticalAlign=middle;whiteSpace=wrap;rounded=0;" parent="tHdHhiSPVZouzMtTKs7G-36" vertex="1">
          <mxGeometry y="50" width="510" height="20" as="geometry" />
        </mxCell>
        <mxCell id="tHdHhiSPVZouzMtTKs7G-43" value="&lt;font style=&quot;vertical-align: inherit;&quot;&gt;&lt;font style=&quot;vertical-align: inherit;&quot;&gt;&lt;font style=&quot;vertical-align: inherit;&quot;&gt;&lt;font style=&quot;vertical-align: inherit;&quot;&gt;[U] 애완용품 구매 정보 수정 할 수 있다.&lt;/font&gt;&lt;/font&gt;&lt;/font&gt;&lt;/font&gt;" style="text;strokeColor=none;align=center;fillColor=none;html=1;verticalAlign=middle;whiteSpace=wrap;rounded=0;" parent="tHdHhiSPVZouzMtTKs7G-36" vertex="1">
          <mxGeometry y="70" width="510" height="20" as="geometry" />
        </mxCell>
        <mxCell id="tHdHhiSPVZouzMtTKs7G-44" value="&lt;font style=&quot;vertical-align: inherit;&quot;&gt;&lt;font style=&quot;vertical-align: inherit;&quot;&gt;&lt;font style=&quot;vertical-align: inherit;&quot;&gt;&lt;font style=&quot;vertical-align: inherit;&quot;&gt;[D] 애완&lt;span style=&quot;color: rgba(0, 0, 0, 0); font-family: monospace; font-size: 0px; text-align: start; text-wrap-mode: nowrap;&quot;&gt;%3CmxGraphModel%3E%3Croot%3E%3CmxCell%20id%3D%220%22%2F%3E%3CmxCell%20id%3D%221%22%20parent%3D%220%22%2F%3E%3CmxCell%20id%3D%222%22%20value%3D%22%26lt%3Bfont%20style%3D%26quot%3Bvertical-align%3A%20inherit%3B%26quot%3B%26gt%3B%26lt%3Bfont%20style%3D%26quot%3Bvertical-align%3A%20inherit%3B%26quot%3B%26gt%3B%26lt%3Bfont%20style%3D%26quot%3Bvertical-align%3A%20inherit%3B%26quot%3B%26gt%3B%26lt%3Bfont%20style%3D%26quot%3Bvertical-align%3A%20inherit%3B%26quot%3B%26gt%3B%5BU%5D%ED%9A%8C%EC%9B%90%EC%9D%80%20%EC%95%A0%EC%99%84%EC%9A%A9%ED%92%88%20%EA%B5%AC%EB%A7%A4%20%EC%A0%95%EB%B3%B4%20%EC%88%98%EC%A0%95%20%ED%95%A0%20%EC%88%98%20%EC%9E%88%EB%8B%A4.%26lt%3B%2Ffont%26gt%3B%26lt%3B%2Ffont%26gt%3B%26lt%3B%2Ffont%26gt%3B%26lt%3B%2Ffont%26gt%3B%22%20style%3D%22text%3BstrokeColor%3Dnone%3Balign%3Dcenter%3BfillColor%3Dnone%3Bhtml%3D1%3BverticalAlign%3Dmiddle%3BwhiteSpace%3Dwrap%3Brounded%3D0%3B%22%20vertex%3D%221%22%20parent%3D%221%22%3E%3CmxGeometry%20x%3D%2295%22%20y%3D%22440%22%20width%3D%22280%22%20height%3D%2220%22%20as%3D%22geometry%22%2F%3E%3C%2FmxCell%3E%3C%2Froot%3E%3C%2FmxGraphModel%3E&lt;/span&gt;용품 구매 취소할 수 있다.&lt;/font&gt;&lt;/font&gt;&lt;/font&gt;&lt;/font&gt;" style="text;strokeColor=none;align=center;fillColor=none;html=1;verticalAlign=middle;whiteSpace=wrap;rounded=0;" parent="tHdHhiSPVZouzMtTKs7G-36" vertex="1">
          <mxGeometry y="90" width="510" height="20" as="geometry" />
        </mxCell>
        <mxCell id="tHdHhiSPVZouzMtTKs7G-42" value="&lt;font style=&quot;vertical-align: inherit;&quot;&gt;&lt;font style=&quot;vertical-align: inherit;&quot;&gt;&lt;font style=&quot;vertical-align: inherit;&quot;&gt;&lt;font style=&quot;vertical-align: inherit;&quot;&gt;[C] 애완용품 구매를 할 수 있다.&lt;/font&gt;&lt;/font&gt;&lt;/font&gt;&lt;/font&gt;" style="text;strokeColor=none;align=center;fillColor=none;html=1;verticalAlign=middle;whiteSpace=wrap;rounded=0;" parent="tHdHhiSPVZouzMtTKs7G-36" vertex="1">
          <mxGeometry y="110" width="510" height="20" as="geometry" />
        </mxCell>
        <mxCell id="tHdHhiSPVZouzMtTKs7G-50" value="[U] 등록된 애완용품 정보를 수정할 수 있다.&lt;div&gt;[R] 등록한 애완용품 정보를 조회할 수 있다.&lt;/div&gt;&lt;div&gt;[D] 등록된 애완용품 정보를 삭제할 수 있다.&lt;/div&gt;&lt;div&gt;[C] 애완용품을 등록할 수 있다.&lt;/div&gt;" style="text;strokeColor=none;align=center;fillColor=none;html=1;verticalAlign=middle;whiteSpace=wrap;rounded=0;" parent="tHdHhiSPVZouzMtTKs7G-36" vertex="1">
          <mxGeometry y="130" width="510" height="110" as="geometry" />
        </mxCell>
        <mxCell id="tHdHhiSPVZouzMtTKs7G-51" value="[R]관리자는 등록된 상품 목록을 조회(전체,키워드)할 수 있다.&lt;div&gt;[U]관리자는 등록한 상품을 수정할 수 있다.&lt;/div&gt;&lt;div&gt;[D]관리자는 판매자가 등록한 상품을 삭제할 수 있다.&lt;/div&gt;&lt;div&gt;[C]관리자가 판매자를 대신해 상품을 등록할 수 있다.&lt;/div&gt;" style="text;strokeColor=none;align=center;fillColor=none;html=1;verticalAlign=middle;whiteSpace=wrap;rounded=0;" parent="tHdHhiSPVZouzMtTKs7G-36" vertex="1">
          <mxGeometry y="240" width="510" height="140" as="geometry" />
        </mxCell>
        <mxCell id="tHdHhiSPVZouzMtTKs7G-52" value="회원은 로그인 할 수 있다.&lt;div&gt;회원은 로그아웃 할 수 있다.&lt;/div&gt;&lt;div&gt;회원은 회원탈퇴 할 수 있다.&lt;/div&gt;&lt;div&gt;&lt;br&gt;&lt;/div&gt;&lt;div&gt;회원은 개인정보 조회 할 수 있다.&lt;/div&gt;&lt;div&gt;회원은 개인정보 수정할 수 있다&lt;/div&gt;&lt;div&gt;.&lt;/div&gt;&lt;div&gt;회원은 판매자 계정 전환할 수 있다.&lt;/div&gt;&lt;div&gt;회원은 판매자 계정에서 일반 계정으로 전환 할 수 있다.&lt;/div&gt;" style="text;strokeColor=none;align=center;fillColor=none;html=1;verticalAlign=middle;whiteSpace=wrap;rounded=0;" parent="1" vertex="1">
          <mxGeometry x="95" y="540" width="315" height="220" as="geometry" />
        </mxCell>
        <mxCell id="tHdHhiSPVZouzMtTKs7G-53" value="비회원은 회원가입 할 수 있다." style="text;strokeColor=none;align=center;fillColor=none;html=1;verticalAlign=middle;whiteSpace=wrap;rounded=0;" parent="1" vertex="1">
          <mxGeometry x="500" y="550" width="280" height="125" as="geometry" />
        </mxCell>
        <mxCell id="tHdHhiSPVZouzMtTKs7G-56" value="애완용품시스템" style="shape=umlFrame;whiteSpace=wrap;html=1;pointerEvents=0;width=100;height=30;" parent="1" vertex="1">
          <mxGeometry x="1200" y="1540" width="640" height="520" as="geometry" />
        </mxCell>
        <mxCell id="tHdHhiSPVZouzMtTKs7G-57" value="비회원" style="shape=umlActor;verticalLabelPosition=bottom;verticalAlign=top;html=1;" parent="1" vertex="1">
          <mxGeometry x="1074" y="1610" width="30" height="60" as="geometry" />
        </mxCell>
        <mxCell id="tHdHhiSPVZouzMtTKs7G-61" value="회원" style="shape=umlActor;verticalLabelPosition=bottom;verticalAlign=top;html=1;" parent="1" vertex="1">
          <mxGeometry x="1080" y="1940" width="30" height="60" as="geometry" />
        </mxCell>
        <mxCell id="tHdHhiSPVZouzMtTKs7G-64" value="판매자" style="shape=umlActor;verticalLabelPosition=bottom;verticalAlign=top;html=1;" parent="1" vertex="1">
          <mxGeometry x="2030" y="1610" width="30" height="60" as="geometry" />
        </mxCell>
        <mxCell id="tHdHhiSPVZouzMtTKs7G-65" value="관리자" style="shape=umlActor;verticalLabelPosition=bottom;verticalAlign=top;html=1;" parent="1" vertex="1">
          <mxGeometry x="2030" y="1940" width="30" height="60" as="geometry" />
        </mxCell>
        <mxCell id="tHdHhiSPVZouzMtTKs7G-66" value="애완용품 조회" style="ellipse;whiteSpace=wrap;html=1;" parent="1" vertex="1">
          <mxGeometry x="1241" y="1690" width="110" height="60" as="geometry" />
        </mxCell>
        <mxCell id="tHdHhiSPVZouzMtTKs7G-67" value="애완용품 구매" style="ellipse;whiteSpace=wrap;html=1;" parent="1" vertex="1">
          <mxGeometry x="1241" y="1760" width="110" height="60" as="geometry" />
        </mxCell>
        <mxCell id="tHdHhiSPVZouzMtTKs7G-68" value="구매내역 조회&lt;span style=&quot;color: rgba(0, 0, 0, 0); font-family: monospace; font-size: 0px; text-align: start; text-wrap-mode: nowrap;&quot;&gt;%3CmxGraphModel%3E%3Croot%3E%3CmxCell%20id%3D%220%22%2F%3E%3CmxCell%20id%3D%221%22%20parent%3D%220%22%2F%3E%3CmxCell%20id%3D%222%22%20value%3D%22Use%20Case%22%20style%3D%22ellipse%3BwhiteSpace%3Dwrap%3Bhtml%3D1%3B%22%20vertex%3D%221%22%20parent%3D%221%22%3E%3CmxGeometry%20x%3D%221230%22%20y%3D%221600%22%20width%3D%22110%22%20height%3D%2260%22%20as%3D%22geometry%22%2F%3E%3C%2FmxCell%3E%3C%2Froot%3E%3C%2FmxGraphModel%3E&lt;/span&gt;&lt;span style=&quot;color: rgba(0, 0, 0, 0); font-family: monospace; font-size: 0px; text-align: start; text-wrap-mode: nowrap;&quot;&gt;%3CmxGraphModel%3E%3Croot%3E%3CmxCell%20id%3D%220%22%2F%3E%3CmxCell%20id%3D%221%22%20parent%3D%220%22%2F%3E%3CmxCell%20id%3D%222%22%20value%3D%22Use%20Case%22%20style%3D%22ellipse%3BwhiteSpace%3Dwrap%3Bhtml%3D1%3B%22%20vertex%3D%221%22%20parent%3D%221%22%3E%3CmxGeometry%20x%3D%221230%22%20y%3D%221600%22%20width%3D%22110%22%20height%3D%2260%22%20as%3D%22geometry%22%2F%3E%3C%2FmxCell%3E%3C%2Froot%3E%3C%2FmxGraphModel%3E&lt;/span&gt;&lt;span style=&quot;color: rgba(0, 0, 0, 0); font-family: monospace; font-size: 0px; text-align: start; text-wrap-mode: nowrap;&quot;&gt;%3CmxGraphModel%3E%3Croot%3E%3CmxCell%20id%3D%220%22%2F%3E%3CmxCell%20id%3D%221%22%20parent%3D%220%22%2F%3E%3CmxCell%20id%3D%222%22%20value%3D%22Use%20Case%22%20style%3D%22ellipse%3BwhiteSpace%3Dwrap%3Bhtml%3D1%3B%22%20vertex%3D%221%22%20parent%3D%221%22%3E%3CmxGeometry%20x%3D%221230%22%20y%3D%221600%22%20width%3D%22110%22%20height%3D%2260%22%20as%3D%22geometry%22%2F%3E%3C%2FmxCell%3E%3C%2Froot%3E%3C%2FmxGraphModel%3E&lt;/span&gt;" style="ellipse;whiteSpace=wrap;html=1;" parent="1" vertex="1">
          <mxGeometry x="1241" y="1830" width="110" height="60" as="geometry" />
        </mxCell>
        <mxCell id="tHdHhiSPVZouzMtTKs7G-69" value="구매 취소" style="ellipse;whiteSpace=wrap;html=1;" parent="1" vertex="1">
          <mxGeometry x="1241" y="1900" width="110" height="60" as="geometry" />
        </mxCell>
        <mxCell id="tHdHhiSPVZouzMtTKs7G-70" value="구매 확정" style="ellipse;whiteSpace=wrap;html=1;" parent="1" vertex="1">
          <mxGeometry x="1241" y="1970" width="110" height="60" as="geometry" />
        </mxCell>
        <mxCell id="tHdHhiSPVZouzMtTKs7G-71" value="dispatch" style="html=1;verticalAlign=bottom;endArrow=block;curved=0;rounded=0;" parent="1" source="tHdHhiSPVZouzMtTKs7G-57" target="tHdHhiSPVZouzMtTKs7G-66" edge="1">
          <mxGeometry width="80" relative="1" as="geometry">
            <mxPoint x="1500" y="1830" as="sourcePoint" />
            <mxPoint x="1580" y="1830" as="targetPoint" />
          </mxGeometry>
        </mxCell>
        <mxCell id="tHdHhiSPVZouzMtTKs7G-72" value="dispatch" style="html=1;verticalAlign=bottom;endArrow=block;curved=0;rounded=0;" parent="1" target="tHdHhiSPVZouzMtTKs7G-67" edge="1">
          <mxGeometry width="80" relative="1" as="geometry">
            <mxPoint x="1110" y="1970" as="sourcePoint" />
            <mxPoint x="1190" y="1970" as="targetPoint" />
          </mxGeometry>
        </mxCell>
        <mxCell id="tHdHhiSPVZouzMtTKs7G-73" value="dispatch" style="html=1;verticalAlign=bottom;endArrow=block;curved=0;rounded=0;" parent="1" target="tHdHhiSPVZouzMtTKs7G-68" edge="1">
          <mxGeometry width="80" relative="1" as="geometry">
            <mxPoint x="1100" y="1980" as="sourcePoint" />
            <mxPoint x="1180" y="1980" as="targetPoint" />
          </mxGeometry>
        </mxCell>
        <mxCell id="tHdHhiSPVZouzMtTKs7G-74" value="dispatch" style="html=1;verticalAlign=bottom;endArrow=block;curved=0;rounded=0;" parent="1" target="tHdHhiSPVZouzMtTKs7G-69" edge="1">
          <mxGeometry width="80" relative="1" as="geometry">
            <mxPoint x="1090" y="1940" as="sourcePoint" />
            <mxPoint x="1170" y="1940" as="targetPoint" />
          </mxGeometry>
        </mxCell>
        <mxCell id="tHdHhiSPVZouzMtTKs7G-75" value="dispatch" style="html=1;verticalAlign=bottom;endArrow=block;curved=0;rounded=0;" parent="1" target="tHdHhiSPVZouzMtTKs7G-70" edge="1">
          <mxGeometry width="80" relative="1" as="geometry">
            <mxPoint x="1090" y="1970" as="sourcePoint" />
            <mxPoint x="1170" y="1970" as="targetPoint" />
          </mxGeometry>
        </mxCell>
        <mxCell id="tHdHhiSPVZouzMtTKs7G-77" value="전체" style="ellipse;whiteSpace=wrap;html=1;" parent="1" vertex="1">
          <mxGeometry x="1230" y="1570" width="60" height="50" as="geometry" />
        </mxCell>
        <mxCell id="tHdHhiSPVZouzMtTKs7G-78" value="키워드" style="ellipse;whiteSpace=wrap;html=1;" parent="1" vertex="1">
          <mxGeometry x="1350" y="1570" width="90" height="50" as="geometry" />
        </mxCell>
        <mxCell id="tHdHhiSPVZouzMtTKs7G-80" value="Use" style="endArrow=open;endSize=12;dashed=1;html=1;rounded=0;" parent="1" source="tHdHhiSPVZouzMtTKs7G-77" target="tHdHhiSPVZouzMtTKs7G-66" edge="1">
          <mxGeometry width="160" relative="1" as="geometry">
            <mxPoint x="1460" y="1830" as="sourcePoint" />
            <mxPoint x="1620" y="1830" as="targetPoint" />
          </mxGeometry>
        </mxCell>
        <mxCell id="tHdHhiSPVZouzMtTKs7G-81" value="" style="endArrow=block;dashed=1;endFill=0;endSize=12;html=1;rounded=0;" parent="1" target="tHdHhiSPVZouzMtTKs7G-66" edge="1">
          <mxGeometry width="160" relative="1" as="geometry">
            <mxPoint x="1418.0625837840255" y="1600.001809729982" as="sourcePoint" />
            <mxPoint x="1621.93" y="1812.93" as="targetPoint" />
          </mxGeometry>
        </mxCell>
        <mxCell id="tHdHhiSPVZouzMtTKs7G-82" value="로그인" style="ellipse;whiteSpace=wrap;html=1;" parent="1" vertex="1">
          <mxGeometry x="1470" y="1800" width="70" height="20" as="geometry" />
        </mxCell>
        <mxCell id="tHdHhiSPVZouzMtTKs7G-105" value="" style="edgeStyle=orthogonalEdgeStyle;rounded=0;orthogonalLoop=1;jettySize=auto;html=1;endArrow=open;endFill=0;dashed=1;" parent="1" source="tHdHhiSPVZouzMtTKs7G-84" target="tHdHhiSPVZouzMtTKs7G-104" edge="1">
          <mxGeometry relative="1" as="geometry">
            <Array as="points">
              <mxPoint x="1560" y="1580" />
            </Array>
          </mxGeometry>
        </mxCell>
        <mxCell id="tHdHhiSPVZouzMtTKs7G-84" value="애완용품&amp;nbsp;&lt;div&gt;서비스&lt;/div&gt;" style="ellipse;whiteSpace=wrap;html=1;" parent="1" vertex="1">
          <mxGeometry x="1600" y="1560" width="126" height="30" as="geometry" />
        </mxCell>
        <mxCell id="tHdHhiSPVZouzMtTKs7G-93" value="" style="edgeStyle=orthogonalEdgeStyle;rounded=0;orthogonalLoop=1;jettySize=auto;html=1;endArrow=block;endFill=0;" parent="1" source="tHdHhiSPVZouzMtTKs7G-85" target="tHdHhiSPVZouzMtTKs7G-84" edge="1">
          <mxGeometry relative="1" as="geometry" />
        </mxCell>
        <mxCell id="tHdHhiSPVZouzMtTKs7G-85" value="물품&lt;div&gt;등록&lt;/div&gt;" style="ellipse;whiteSpace=wrap;html=1;" parent="1" vertex="1">
          <mxGeometry x="1594" y="1650" width="30" height="30" as="geometry" />
        </mxCell>
        <mxCell id="tHdHhiSPVZouzMtTKs7G-92" value="" style="edgeStyle=orthogonalEdgeStyle;rounded=0;orthogonalLoop=1;jettySize=auto;html=1;endArrow=block;endFill=0;" parent="1" source="tHdHhiSPVZouzMtTKs7G-86" target="tHdHhiSPVZouzMtTKs7G-84" edge="1">
          <mxGeometry relative="1" as="geometry" />
        </mxCell>
        <mxCell id="tHdHhiSPVZouzMtTKs7G-86" value="물품\수정" style="ellipse;whiteSpace=wrap;html=1;" parent="1" vertex="1">
          <mxGeometry x="1630" y="1650" width="30" height="30" as="geometry" />
        </mxCell>
        <mxCell id="tHdHhiSPVZouzMtTKs7G-91" value="" style="edgeStyle=orthogonalEdgeStyle;rounded=0;orthogonalLoop=1;jettySize=auto;html=1;endArrow=block;endFill=0;" parent="1" source="tHdHhiSPVZouzMtTKs7G-87" target="tHdHhiSPVZouzMtTKs7G-84" edge="1">
          <mxGeometry relative="1" as="geometry" />
        </mxCell>
        <mxCell id="tHdHhiSPVZouzMtTKs7G-87" value="물품&lt;div&gt;삭제&lt;/div&gt;" style="ellipse;whiteSpace=wrap;html=1;" parent="1" vertex="1">
          <mxGeometry x="1670" y="1650" width="30" height="30" as="geometry" />
        </mxCell>
        <mxCell id="tHdHhiSPVZouzMtTKs7G-90" value="" style="edgeStyle=orthogonalEdgeStyle;rounded=0;orthogonalLoop=1;jettySize=auto;html=1;endArrow=block;endFill=0;" parent="1" source="tHdHhiSPVZouzMtTKs7G-89" target="tHdHhiSPVZouzMtTKs7G-84" edge="1">
          <mxGeometry relative="1" as="geometry" />
        </mxCell>
        <mxCell id="tHdHhiSPVZouzMtTKs7G-89" value="물품&lt;div&gt;조회&lt;/div&gt;" style="ellipse;whiteSpace=wrap;html=1;" parent="1" vertex="1">
          <mxGeometry x="1710" y="1650" width="30" height="30" as="geometry" />
        </mxCell>
        <mxCell id="tHdHhiSPVZouzMtTKs7G-95" value="dispatch" style="html=1;verticalAlign=bottom;endArrow=block;curved=0;rounded=0;exitX=0.424;exitY=0.591;exitDx=0;exitDy=0;exitPerimeter=0;" parent="1" source="tHdHhiSPVZouzMtTKs7G-64" target="tHdHhiSPVZouzMtTKs7G-84" edge="1">
          <mxGeometry width="80" relative="1" as="geometry">
            <mxPoint x="1990" y="1660" as="sourcePoint" />
            <mxPoint x="2060" y="1790" as="targetPoint" />
          </mxGeometry>
        </mxCell>
        <mxCell id="tHdHhiSPVZouzMtTKs7G-96" value="Use" style="endArrow=open;endSize=12;dashed=1;html=1;rounded=0;" parent="1" source="tHdHhiSPVZouzMtTKs7G-70" target="tHdHhiSPVZouzMtTKs7G-82" edge="1">
          <mxGeometry width="160" relative="1" as="geometry">
            <mxPoint x="1320" y="1990" as="sourcePoint" />
            <mxPoint x="1480" y="1990" as="targetPoint" />
          </mxGeometry>
        </mxCell>
        <mxCell id="tHdHhiSPVZouzMtTKs7G-97" value="Use" style="endArrow=open;endSize=12;dashed=1;html=1;rounded=0;" parent="1" target="tHdHhiSPVZouzMtTKs7G-82" edge="1">
          <mxGeometry width="160" relative="1" as="geometry">
            <mxPoint x="1320" y="1850" as="sourcePoint" />
            <mxPoint x="1480" y="1850" as="targetPoint" />
          </mxGeometry>
        </mxCell>
        <mxCell id="tHdHhiSPVZouzMtTKs7G-98" value="Use" style="endArrow=open;endSize=12;dashed=1;html=1;rounded=0;" parent="1" source="tHdHhiSPVZouzMtTKs7G-67" target="tHdHhiSPVZouzMtTKs7G-82" edge="1">
          <mxGeometry width="160" relative="1" as="geometry">
            <mxPoint x="1340" y="1790" as="sourcePoint" />
            <mxPoint x="1500" y="1790" as="targetPoint" />
          </mxGeometry>
        </mxCell>
        <mxCell id="tHdHhiSPVZouzMtTKs7G-99" value="Use" style="endArrow=open;endSize=12;dashed=1;html=1;rounded=0;" parent="1" target="tHdHhiSPVZouzMtTKs7G-82" edge="1">
          <mxGeometry width="160" relative="1" as="geometry">
            <mxPoint x="1510" y="1800" as="sourcePoint" />
            <mxPoint x="1670" y="1800" as="targetPoint" />
          </mxGeometry>
        </mxCell>
        <mxCell id="tHdHhiSPVZouzMtTKs7G-103" value="Use" style="endArrow=open;endSize=12;dashed=1;html=1;rounded=0;exitX=1;exitY=0.5;exitDx=0;exitDy=0;" parent="1" source="tHdHhiSPVZouzMtTKs7G-69" target="tHdHhiSPVZouzMtTKs7G-82" edge="1">
          <mxGeometry width="160" relative="1" as="geometry">
            <mxPoint x="1330" y="1930" as="sourcePoint" />
            <mxPoint x="1490" y="1930" as="targetPoint" />
          </mxGeometry>
        </mxCell>
        <mxCell id="tHdHhiSPVZouzMtTKs7G-104" value="계정 전환&lt;div&gt;&lt;br&gt;&lt;/div&gt;" style="ellipse;whiteSpace=wrap;html=1;" parent="1" vertex="1">
          <mxGeometry x="1450" y="1660" width="90" height="40" as="geometry" />
        </mxCell>
        <mxCell id="tHdHhiSPVZouzMtTKs7G-106" value="애완용품&amp;nbsp;&lt;div&gt;서비스&lt;/div&gt;" style="ellipse;whiteSpace=wrap;html=1;" parent="1" vertex="1">
          <mxGeometry x="1622" y="1915" width="126" height="30" as="geometry" />
        </mxCell>
      </root>
    </mxGraphModel>
  </diagram>
</mxfile>
